<?xml version="1.0" standalone="no"?>
<!DOCTYPE svg PUBLIC "-//W3C//DTD SVG 20010904//EN"
 "http://www.w3.org/TR/2001/REC-SVG-20010904/DTD/svg10.dtd">
<svg version="1.0" xmlns="http://www.w3.org/2000/svg"
 width="700.000000pt" height="700.000000pt" viewBox="0 0 700.000000 700.000000"
 preserveAspectRatio="xMidYMid meet">
<metadata>
Created by potrace 1.14, written by Peter Selinger 2001-2017
</metadata>
<g transform="translate(0.000000,700.000000) scale(0.100000,-0.100000)"
fill="#000000" stroke="none">
<path d="M0 3500 l0 -3500 3500 0 3500 0 0 3500 0 3500 -3500 0 -3500 0 0
-3500z m4600 1590 c314 -20 541 -94 728 -237 266 -203 401 -544 378 -952 -37
-635 -399 -1051 -1048 -1206 -242 -57 -501 -75 -1120 -75 l-438 0 0 -365 0
-365 -825 0 -825 0 0 1605 0 1605 1503 0 c833 0 1567 -5 1647 -10z"/>
<path d="M3100 3841 l0 -341 323 0 c349 0 412 7 505 54 63 32 106 75 140 140
24 46 27 61 27 161 0 91 -4 118 -21 156 -29 62 -85 114 -153 141 -54 22 -69
23 -438 26 l-383 3 0 -340z"/>
</g>
</svg>
