<svg width="26" height="26" viewBox="0 0 26 26" fill="none" xmlns="http://www.w3.org/2000/svg">
<path d="M21.6666 23.8334C22.2649 23.8334 22.7499 23.3484 22.7499 22.7501C22.7499 22.1518 22.2649 21.6667 21.6666 21.6667C21.0683 21.6667 20.5833 22.1518 20.5833 22.7501C20.5833 23.3484 21.0683 23.8334 21.6666 23.8334Z" fill="white" stroke="white" stroke-width="1.73333" stroke-linecap="round" stroke-linejoin="round"/>
<path d="M9.75008 23.8334C10.3484 23.8334 10.8334 23.3484 10.8334 22.7501C10.8334 22.1518 10.3484 21.6667 9.75008 21.6667C9.15177 21.6667 8.66675 22.1518 8.66675 22.7501C8.66675 23.3484 9.15177 23.8334 9.75008 23.8334Z" fill="white" stroke="white" stroke-width="1.73333" stroke-linecap="round" stroke-linejoin="round"/>
<path d="M1.08325 1.08325H5.41658L8.31992 15.5891C8.41898 16.0878 8.69032 16.5359 9.08642 16.8547C9.48253 17.1736 9.97817 17.343 10.4866 17.3333H21.0166C21.525 17.343 22.0206 17.1736 22.4167 16.8547C22.8128 16.5359 23.0842 16.0878 23.1832 15.5891L24.9166 6.49992H6.49992" stroke="white" stroke-width="1.73333" stroke-linecap="round" stroke-linejoin="round"/>
</svg>
