<svg width="28" height="28" viewBox="0 0 28 28" fill="none" xmlns="http://www.w3.org/2000/svg">
<path d="M24.5 0.5H3.5C1.85 0.5 0.5 1.85 0.5 3.5V24.5C0.5 26.1515 1.85 27.5 3.5 27.5H24.5C26.15 27.5 27.5 26.1515 27.5 24.5V3.5C27.5 1.85 26.15 0.5 24.5 0.5ZM13.976 22.2845C16.1793 22.2841 18.2922 21.4086 19.85 19.8505C21.4078 18.2924 22.283 16.1793 22.283 13.976C22.283 13.469 22.2185 12.98 22.1285 12.5H24.5V23.324C24.5 23.4603 24.4731 23.5953 24.4208 23.7211C24.3685 23.847 24.2918 23.9613 24.1953 24.0574C24.0987 24.1536 23.984 24.2298 23.858 24.2815C23.7319 24.3333 23.5968 24.3596 23.4605 24.359H4.5395C4.4032 24.3596 4.26813 24.3333 4.14204 24.2815C4.01595 24.2298 3.90132 24.1536 3.80473 24.0574C3.70815 23.9613 3.63151 23.847 3.57921 23.7211C3.52692 23.5953 3.5 23.4603 3.5 23.324V12.5H5.8235C5.732 12.98 5.6675 13.469 5.6675 13.976C5.6679 16.1794 6.54338 18.2925 8.10144 19.8506C9.6595 21.4086 11.7726 22.2841 13.976 22.2845ZM8.7845 13.976C8.7845 13.2942 8.91878 12.6192 9.17968 11.9893C9.44057 11.3594 9.82298 10.7871 10.3051 10.3051C10.7871 9.82298 11.3594 9.44057 11.9893 9.17968C12.6192 8.91878 13.2942 8.7845 13.976 8.7845C14.6578 8.7845 15.3328 8.91878 15.9627 9.17968C16.5926 9.44057 17.1649 9.82298 17.6469 10.3051C18.129 10.7871 18.5114 11.3594 18.7723 11.9893C19.0332 12.6192 19.1675 13.2942 19.1675 13.976C19.1675 15.3529 18.6205 16.6733 17.6469 17.6469C16.6733 18.6205 15.3529 19.1675 13.976 19.1675C12.5991 19.1675 11.2786 18.6205 10.3051 17.6469C9.33146 16.6733 8.7845 15.3529 8.7845 13.976ZM23.4605 8H21.038C20.7629 7.99921 20.4994 7.88959 20.3049 7.6951C20.1104 7.50061 20.0008 7.23705 20 6.962V4.5365C20 3.9635 20.465 3.5 21.0365 3.5H23.459C24.035 3.5 24.5 3.9635 24.5 4.5365V6.9605C24.5 7.532 24.035 8 23.4605 8Z" fill="white"/>
</svg>
