<svg width="80" height="37" viewBox="0 0 80 37" fill="none" xmlns="http://www.w3.org/2000/svg">
<path d="M-0.138672 14.7341V0.952148H12.7729C14.4751 0.952148 15.7858 1.36902 16.7062 2.2018C17.6255 3.03555 18.0862 4.22344 18.0862 5.76645C18.0862 6.71696 17.9006 7.58448 17.5303 8.36998C17.1601 9.15548 16.6244 9.78947 15.9243 10.271C15.2511 10.739 14.4789 11.0768 13.6076 11.2833C12.7354 11.4898 11.641 11.593 10.3235 11.593H6.92585V14.7341H-0.138672ZM9.21081 7.81222C10.5283 7.81222 11.188 7.29595 11.188 6.26246C11.188 5.82146 11.0611 5.48757 10.8072 5.2608C10.5533 5.03307 10.1927 4.92016 9.72627 4.92016H6.92585V7.81319H9.21081V7.81222Z" fill="#166837"/>
<path d="M31.5939 14.7338L31.0996 12.9573H26.5076L26.0132 14.7338H18.8064L23.1926 0.951904H34.3741L38.6988 14.7338H31.5939ZM28.855 4.83596L27.3721 9.19576H30.2754L28.855 4.83596Z" fill="#166837"/>
<path d="M40.2224 14.7338V0.951904H53.134C54.8362 0.951904 56.1469 1.36878 57.0673 2.20156C57.9866 3.0353 58.4473 4.2232 58.4473 5.76621C58.4473 6.71672 58.2617 7.58424 57.8914 8.36974C57.5212 9.15523 56.9855 9.78923 56.2854 10.2708C55.6122 10.7388 54.84 11.0765 53.9687 11.283C53.0965 11.4895 52.0021 11.5928 50.6846 11.5928H47.2869V14.7338H40.2224ZM49.5709 7.81198C50.8885 7.81198 51.5482 7.29571 51.5482 6.26221C51.5482 5.82121 51.4212 5.48733 51.1673 5.26056C50.9135 5.03282 50.5528 4.91992 50.0864 4.91992H47.286V7.81294H49.5709V7.81198Z" fill="#166837"/>
<path d="M71.955 14.7338L71.4607 12.9573H66.8686L66.3743 14.7338H59.1675L63.5537 0.951904H74.7352L79.0599 14.7338H71.955ZM69.2161 4.83596L67.7332 9.19576H70.6365L69.2161 4.83596Z" fill="#166837"/>
<path d="M10.3021 36.056L6.92465 31.6548V36.056H-0.138916V22.2732H6.92465V27.5835L10.3021 22.2732H18.6629L12.8967 29.36L18.2917 36.0551H10.3021V36.056Z" fill="#166837"/>
<path d="M31.3263 36.056L30.832 34.2795H26.24L25.7457 36.056H18.5388L22.9251 22.2742H34.1065L38.4312 36.056H31.3263ZM28.5874 26.1582L27.1045 30.518H30.0078L28.5874 26.1582Z" fill="#166837"/>
<path d="M39.9548 22.2732H51.9393C53.0789 22.2732 54.0531 22.4179 54.8638 22.7074C55.6735 22.9969 56.3871 23.4582 57.0055 24.0922C58.1451 25.2637 58.7144 26.8057 58.7144 28.7212C58.7144 29.9747 58.4913 31.0565 58.045 31.9655C57.5988 32.8745 56.916 33.6667 55.9957 34.3413C54.4445 35.4848 52.5221 36.056 50.2295 36.056H39.9548V22.2732ZM48.0887 31.923C48.6244 31.923 49.0572 31.8892 49.3861 31.8207C49.7159 31.7522 50.0169 31.6287 50.292 31.4502C50.6487 31.2311 50.9228 30.9262 51.1161 30.5344C51.3085 30.1436 51.4046 29.7074 51.4046 29.2278C51.4046 27.7736 50.6151 27.047 49.036 27.047H47.0184V31.923H48.0887Z" fill="#166837"/>
<path d="M74.1582 22.2838C75.2978 22.553 76.272 22.9486 77.0817 23.4716C77.9472 24.0371 78.5983 24.7975 79.0378 25.7548C79.4773 26.7121 79.6965 27.8517 79.6965 29.1747C79.6965 30.4012 79.4936 31.4926 79.0888 32.4498C78.6839 33.4071 78.104 34.1617 77.3491 34.7127C75.7431 35.8697 73.361 36.4487 70.2038 36.4487C67.06 36.4487 64.6847 35.8697 63.0787 34.7127C62.3237 34.1617 61.7439 33.4081 61.339 32.4498C60.9341 31.4926 60.7312 30.4079 60.7312 29.1959C60.7312 26.7024 61.514 24.8603 63.0787 23.6685C64.6433 22.4767 67.06 21.8814 70.3269 21.8814C71.7415 21.8804 73.0177 22.0145 74.1582 22.2838ZM68.4535 27.2245C68.0554 27.6741 67.8563 28.3332 67.8563 29.2046C67.8563 31.3884 68.6382 32.4807 70.2038 32.4807C71.7819 32.4807 72.5714 31.3884 72.5714 29.2046C72.5714 27.4358 71.7752 26.5509 70.1826 26.5509C69.4277 26.5509 68.8517 26.7748 68.4535 27.2245Z" fill="#166837"/>
</svg>
