<svg width="14" height="18" viewBox="0 0 14 18" fill="none" xmlns="http://www.w3.org/2000/svg">
<path d="M4.35085 6.29602L4.34916 6.2974L4.34756 6.29895L4.35085 6.29602ZM11.8164 6.15613C11.7643 6.10583 11.7064 6.06183 11.6439 6.02502C11.5556 5.97301 11.4575 5.93969 11.3557 5.9271C11.254 5.91451 11.1507 5.92292 11.0524 5.95183C10.954 5.98073 10.8626 6.0295 10.7838 6.09512C10.705 6.16075 10.6406 6.24184 10.5944 6.33337C10.336 6.84239 9.97971 7.29539 9.54588 7.66638C9.61222 7.29258 9.64567 6.91369 9.64585 6.53405C9.64725 5.37913 9.34257 4.24446 8.76284 3.24557C8.18312 2.24669 7.34905 1.41927 6.34556 0.84755C6.23501 0.784885 6.11036 0.751332 5.9833 0.750039C5.85623 0.748746 5.73092 0.779755 5.61913 0.840156C5.50733 0.900558 5.41271 0.988372 5.34415 1.09536C5.27559 1.20234 5.23533 1.325 5.22715 1.4518C5.18518 2.16293 4.99927 2.85814 4.68069 3.4953C4.36211 4.13246 3.91749 4.69832 3.37377 5.15857L3.20092 5.2992C2.63236 5.68176 2.12909 6.15337 1.71045 6.69592C1.05968 7.51575 0.60888 8.47593 0.393788 9.50031C0.178697 10.5247 0.205233 11.5851 0.471292 12.5974C0.737351 13.6098 1.23562 14.5462 1.92657 15.3324C2.61753 16.1187 3.48217 16.7332 4.45193 17.1271C4.56579 17.1736 4.68936 17.1914 4.81172 17.1789C4.93408 17.1664 5.05149 17.1239 5.15358 17.0553C5.25566 16.9867 5.3393 16.894 5.3971 16.7855C5.4549 16.6769 5.4851 16.5557 5.48502 16.4327C5.48449 16.3532 5.47189 16.2742 5.44767 16.1984C5.27988 15.5676 5.23156 14.9111 5.30521 14.2626C6.01489 15.6011 7.15406 16.6621 8.53959 17.275C8.7087 17.3507 8.89989 17.3609 9.07609 17.3036C10.1708 16.9503 11.1569 16.3229 11.9408 15.4811C12.7247 14.6393 13.2804 13.6111 13.555 12.4941C13.8296 11.377 13.814 10.2084 13.5097 9.09907C13.2054 7.98977 12.6225 6.9767 11.8164 6.15613ZM8.88784 15.7794C8.23408 15.4481 7.65737 14.9829 7.19521 14.414C6.73305 13.8452 6.39578 13.1854 6.20535 12.4777C6.14719 12.2394 6.1022 11.998 6.07058 11.7548C6.04916 11.5999 5.97986 11.4555 5.87237 11.3419C5.76489 11.2283 5.62459 11.1512 5.4711 11.1212C5.42381 11.1119 5.37572 11.1072 5.32752 11.1073C5.1957 11.1073 5.0662 11.142 4.95208 11.2079C4.83796 11.2739 4.74325 11.3688 4.6775 11.4831C4.0552 12.5564 3.74225 13.7811 3.77332 15.0214C3.226 14.5958 2.76858 14.0659 2.42758 13.4623C2.08657 12.8586 1.86876 12.1933 1.78677 11.5049C1.70478 10.8165 1.76024 10.1187 1.94994 9.45183C2.13963 8.785 2.45979 8.16245 2.89185 7.62026C3.21991 7.19414 3.61567 6.82473 4.06335 6.52676C4.08274 6.51425 4.10133 6.50055 4.11902 6.48574C4.11902 6.48574 4.34154 6.30163 4.34914 6.29742C5.41766 5.39364 6.17765 4.17905 6.5232 2.8229C7.34037 3.57832 7.88526 4.58242 8.07326 5.67928C8.26126 6.77614 8.08184 7.90438 7.56287 8.88882C7.4943 9.02018 7.46618 9.16891 7.48204 9.31624C7.4979 9.46356 7.55703 9.6029 7.65199 9.71666C7.74694 9.83042 7.87346 9.91351 8.01558 9.95545C8.1577 9.99739 8.30906 9.9963 8.45056 9.95232C9.5994 9.59219 10.6103 8.88876 11.3473 7.93669C11.7902 8.59091 12.0798 9.33665 12.1944 10.1183C12.3091 10.9 12.2458 11.6975 12.0094 12.4514C11.773 13.2052 11.3695 13.896 10.829 14.4722C10.2886 15.0485 9.625 15.4953 8.88782 15.7794L8.88784 15.7794Z" fill="white"/>
</svg>
