<svg width="28" height="28" viewBox="0 0 28 28" fill="none" xmlns="http://www.w3.org/2000/svg">
<path d="M27.5 24.5V3.5C27.5 1.85 26.1455 0.5 24.4925 0.5H3.5075C1.7825 0.5 0.5 1.7795 0.5 3.5V24.5C0.5 26.222 1.7825 27.5 3.5075 27.5H24.4925C25.2885 27.4988 26.0516 27.1826 26.6152 26.6205C27.1787 26.0583 27.4968 25.296 27.5 24.5ZM21.776 16.4105C21.776 16.4105 23.474 18.086 23.8925 18.863C23.9045 18.8795 23.909 18.8945 23.9135 18.9005C24.083 19.1855 24.1265 19.4105 24.041 19.5755C23.9 19.85 23.42 19.988 23.2565 20H20.258C20.048 20 19.613 19.946 19.085 19.5815C18.68 19.2995 18.2795 18.833 17.8895 18.3785C17.3075 17.7035 16.8035 17.1185 16.2965 17.1185C16.2322 17.1183 16.1683 17.129 16.1075 17.15C15.722 17.273 15.233 17.8205 15.233 19.283C15.233 19.7405 14.873 20.0015 14.618 20.0015H13.244C12.776 20.0015 10.3385 19.838 8.18 17.5595C5.531 14.7695 3.152 9.173 3.131 9.1235C2.981 8.762 3.2915 8.5655 3.629 8.5655H6.659C7.0655 8.5655 7.196 8.8115 7.289 9.032C7.394 9.2825 7.79 10.2935 8.438 11.4305C9.4925 13.28 10.142 14.033 10.6595 14.033C10.7563 14.0325 10.8513 14.0071 10.9355 13.9595C11.612 13.586 11.486 11.174 11.456 10.676C11.456 10.5815 11.4545 9.5975 11.1095 9.125C10.8605 8.783 10.439 8.6525 10.184 8.603C10.288 8.45972 10.4248 8.34347 10.583 8.264C11.0465 8.033 11.882 8 12.713 8H13.175C14.0765 8.012 14.3105 8.0705 14.636 8.153C15.2945 8.3105 15.308 8.738 15.2495 10.193C15.233 10.607 15.215 11.0765 15.215 11.627C15.215 11.7455 15.2105 11.876 15.2105 12.011C15.1895 12.755 15.1655 13.5965 15.6905 13.9415C15.7584 13.984 15.8368 14.0069 15.917 14.0075C16.1 14.0075 16.6475 14.0075 18.131 11.462C18.7835 10.3385 19.286 9.0125 19.3205 8.9135C19.3729 8.80646 19.4488 8.71263 19.5425 8.639C19.6193 8.59909 19.7049 8.57898 19.7915 8.5805H23.354C23.744 8.5805 24.008 8.639 24.0575 8.7875C24.143 9.026 24.041 9.7535 22.4135 11.9525L21.689 12.9125C20.213 14.8445 20.213 14.9435 21.776 16.4105Z" fill="white"/>
</svg>
